<svg width="47" height="40" viewBox="0 0 47 40" fill="none" xmlns="http://www.w3.org/2000/svg">
<path d="M46.7797 25.8219C46.7786 25.2125 46.6217 24.6139 46.3242 24.0845C46.0267 23.5551 45.5989 23.113 45.0825 22.8016C45.663 22.039 45.9222 21.0743 45.8037 20.1184C45.6852 19.1625 45.1985 18.2931 44.45 17.7L44.2957 17.5748C44.7003 16.9669 44.9165 16.2503 44.9165 15.5169C44.9165 14.7835 44.7003 14.0669 44.2957 13.459C44.3 13.4122 44.3 13.365 44.2957 13.3182C43.5742 9.54195 41.5707 6.14163 38.6335 3.70853C35.6964 1.27543 32.0113 -0.036539 28.2193 0.000774517H18.4376C14.6798 0.0332742 11.0465 1.37135 8.14344 3.79192C5.24043 6.21248 3.24316 9.56925 2.48464 13.3026C2.47938 13.3546 2.47938 13.407 2.48464 13.459C2.08004 14.0669 1.86385 14.7835 1.86385 15.5169C1.86385 16.2503 2.08004 16.9669 2.48464 17.5748L2.33035 17.7C1.58182 18.2931 1.09513 19.1625 0.976603 20.1184C0.858078 21.0743 1.11735 22.039 1.69779 22.8016C1.10836 23.1549 0.63567 23.6778 0.339676 24.304C0.0436808 24.9301 -0.0622785 25.6314 0.0352392 26.3188C0.132757 27.0061 0.429357 27.6486 0.887415 28.1647C1.34547 28.6809 1.94435 29.0474 2.60807 29.2177C4.15091 35.4774 10.7697 40 18.5765 40H28.3427C35.9489 40 42.614 35.4617 44.234 29.2177C44.9649 29.0099 45.609 28.5658 46.0684 27.9529C46.5279 27.3401 46.7776 26.5918 46.7797 25.8219V25.8219ZM3.30235 15.5717C3.28091 15.3223 3.31876 15.0714 3.41273 14.8399C3.50669 14.6085 3.65401 14.4033 3.84234 14.2415H42.8146C43.0029 14.4033 43.1502 14.6085 43.2442 14.8399C43.3381 15.0714 43.376 15.3223 43.3546 15.5717C43.402 15.8469 43.3618 16.1302 43.2397 16.3807C43.1176 16.6311 42.9201 16.8356 42.6757 16.9645H4.10462C3.83734 16.8557 3.61338 16.6598 3.4681 16.4076C3.32283 16.1554 3.2645 15.8612 3.30235 15.5717V15.5717ZM18.3605 1.56569H28.1421C31.3932 1.54377 34.5596 2.61657 37.145 4.61595C39.7304 6.61534 41.5888 9.4283 42.4288 12.614H41.8734H4.84519H4.22805C5.09245 9.45709 6.94661 6.67145 9.51023 4.67817C12.0739 2.68489 15.2076 1.59234 18.4376 1.56569H18.3605ZM2.79321 21.9096C2.62663 21.694 2.50364 21.4472 2.43131 21.1832C2.35897 20.9193 2.33871 20.6435 2.37167 20.3717C2.40464 20.0998 2.49019 19.8372 2.62342 19.5989C2.75665 19.3607 2.93494 19.1514 3.14806 18.9832L3.78063 18.4511H4.04291H42.614H42.8763L43.4471 18.9049C43.7257 19.0904 43.954 19.3438 44.111 19.6419C44.2679 19.9401 44.3486 20.2734 44.3455 20.6114C44.3424 20.9494 44.2557 21.2812 44.0934 21.5764C43.931 21.8715 43.6982 22.1206 43.4163 22.3008V22.3008C43.12 22.4885 42.7805 22.5945 42.4314 22.6082C42.0823 22.622 41.7357 22.543 41.426 22.3791V21.534C41.4408 21.3413 41.4408 21.1477 41.426 20.955C41.4262 20.7528 41.3491 20.5584 41.2111 20.4125C41.073 20.2666 40.8846 20.1806 40.6854 20.1725C40.4887 20.1745 40.2993 20.2484 40.1519 20.3807C40.0046 20.5129 39.9091 20.6946 39.8832 20.8924V21.3462C39.8156 21.8481 39.5699 22.3077 39.1922 22.639C38.8144 22.9703 38.3305 23.1505 37.8312 23.1459C37.554 23.1565 37.2775 23.1099 37.0186 23.0091C36.7596 22.9083 36.5235 22.7552 36.3245 22.5592C36.1255 22.3632 35.9677 22.1283 35.8607 21.8687C35.7537 21.6091 35.6998 21.3302 35.7021 21.0489C35.6726 20.8546 35.5839 20.6746 35.4482 20.5342C35.3126 20.3938 35.137 20.3002 34.9461 20.2664C34.8351 20.2458 34.721 20.2502 34.6118 20.2792C34.5027 20.3081 34.4011 20.361 34.3143 20.4342C34.2275 20.5073 34.1576 20.5988 34.1095 20.7023C34.0614 20.8058 34.0362 20.9188 34.0358 21.0332C34.0442 21.5773 33.8422 22.1032 33.4731 22.498C33.104 22.8929 32.5971 23.1255 32.0609 23.1459V23.1459C31.5194 23.1459 30.9998 22.9287 30.6154 22.5418C30.231 22.1549 30.013 21.6295 30.009 21.0802C29.9795 20.8859 29.8908 20.7059 29.7551 20.5655C29.6195 20.4251 29.4439 20.3315 29.253 20.2977C29.142 20.2771 29.0279 20.2815 28.9187 20.3104C28.8096 20.3394 28.708 20.3923 28.6212 20.4655C28.5344 20.5386 28.4645 20.6301 28.4164 20.7336C28.3683 20.8371 28.3431 20.9501 28.3427 21.0645C28.3427 21.3392 28.2891 21.6111 28.185 21.8647C28.0809 22.1182 27.9284 22.3483 27.7362 22.5418C27.5441 22.7353 27.316 22.8883 27.0653 22.9919C26.8145 23.0956 26.546 23.1479 26.2753 23.1459V23.1459C25.7337 23.1459 25.2141 22.9287 24.8297 22.5418C24.4454 22.1549 24.2274 21.6295 24.2233 21.0802C24.1939 20.8859 24.1051 20.7059 23.9695 20.5655C23.8338 20.4251 23.6582 20.3315 23.4673 20.2977C23.3563 20.2771 23.2422 20.2815 23.1331 20.3104C23.0239 20.3394 22.9224 20.3923 22.8356 20.4655C22.7488 20.5386 22.6789 20.6301 22.6307 20.7336C22.5826 20.8371 22.5574 20.9501 22.557 21.0645C22.557 21.3379 22.504 21.6085 22.4008 21.861C22.2977 22.1135 22.1466 22.343 21.956 22.5363C21.7655 22.7295 21.5393 22.8828 21.2903 22.9874C21.0413 23.092 20.7745 23.1459 20.505 23.1459V23.1459C19.9635 23.1459 19.4439 22.9287 19.0595 22.5418C18.6751 22.1549 18.4571 21.6295 18.4531 21.0802C18.4236 20.8859 18.3349 20.7059 18.1992 20.5655C18.0636 20.4251 17.888 20.3315 17.6971 20.2977C17.5861 20.2771 17.472 20.2815 17.3628 20.3104C17.2537 20.3394 17.1521 20.3923 17.0653 20.4655C16.9786 20.5386 16.9086 20.6301 16.8605 20.7336C16.8124 20.8371 16.7872 20.9501 16.7868 21.0645C16.7868 21.6165 16.5706 22.1459 16.1858 22.5363C15.801 22.9266 15.279 23.1459 14.7348 23.1459C14.1933 23.1459 13.6737 22.9287 13.2893 22.5418C12.9049 22.1549 12.6869 21.6295 12.6828 21.0802C12.6534 20.8859 12.5646 20.7059 12.429 20.5655C12.2934 20.4251 12.1177 20.3315 11.9268 20.2977C11.8159 20.2771 11.7018 20.2815 11.5926 20.3104C11.4835 20.3394 11.3819 20.3923 11.2951 20.4655C11.2083 20.5386 11.1384 20.6301 11.0903 20.7336C11.0421 20.8371 11.017 20.9501 11.0166 21.0645C11.0166 21.3392 10.963 21.6111 10.8589 21.8647C10.7548 22.1182 10.6023 22.3483 10.4101 22.5418C10.2179 22.7353 9.98989 22.8883 9.73915 22.9919C9.48841 23.0956 9.21992 23.1479 8.94915 23.1459V23.1459C8.44062 23.1445 7.95072 22.9516 7.57444 22.6046C7.19816 22.2576 6.9623 21.7813 6.9126 21.268V21.0019C6.89704 20.8013 6.80732 20.614 6.66141 20.4776C6.5155 20.3412 6.32417 20.2658 6.12575 20.2664C5.92384 20.2705 5.73157 20.3548 5.59022 20.5011C5.44887 20.6474 5.36971 20.844 5.36976 21.0489C5.36976 21.1741 5.36976 21.2836 5.36976 21.3932V22.426C5.06669 22.6017 4.72368 22.6941 4.37462 22.6941C4.02556 22.6941 3.68255 22.6017 3.37949 22.426V22.426H3.30235C3.12169 22.2664 2.97023 22.0757 2.85492 21.8626L2.79321 21.9096ZM28.2038 38.4977H18.5148C11.6337 38.4977 5.72461 34.7106 4.19719 29.4055H42.506C40.8397 34.5854 34.8535 38.4664 28.281 38.4664L28.2038 38.4977ZM43.2928 27.8406H3.42577C2.9102 27.8406 2.41574 27.6329 2.05117 27.2631C1.6866 26.8933 1.48179 26.3918 1.48179 25.8688C1.48412 25.4211 1.63901 24.988 1.9202 24.6429C2.20139 24.2978 2.59158 24.0619 3.02463 23.9753C3.56888 24.2043 4.16027 24.2941 4.74677 24.2368C5.33327 24.1795 5.89689 23.9768 6.38803 23.6466C6.72392 23.9876 7.12337 24.2572 7.56309 24.4399C8.0028 24.6227 8.47399 24.7147 8.94915 24.7108V24.7108C9.51781 24.7 10.0758 24.5526 10.5774 24.2805C11.079 24.0085 11.5097 23.6196 11.8343 23.1459C12.1588 23.6196 12.5896 24.0085 13.0911 24.2805C13.5927 24.5526 14.1507 24.7 14.7194 24.7108V24.7108C15.288 24.7 15.8461 24.5526 16.3476 24.2805C16.8492 24.0085 17.2799 23.6196 17.6045 23.1459C17.939 23.6023 18.3741 23.973 18.8751 24.2284C19.376 24.4839 19.9289 24.6169 20.4896 24.6169V24.6169C21.0477 24.6145 21.5976 24.4803 22.0956 24.2249C22.5937 23.9696 23.0264 23.6002 23.3593 23.1459C23.6938 23.6023 24.1289 23.973 24.6299 24.2284C25.1308 24.4839 25.6837 24.6169 26.2444 24.6169V24.6169C26.8103 24.6218 27.3694 24.4911 27.8761 24.2355C28.3828 23.9799 28.8228 23.6066 29.1604 23.1459C29.4949 23.6023 29.93 23.973 30.431 24.2284C30.9319 24.4839 31.4848 24.6169 32.0455 24.6169C32.6062 24.6169 33.1591 24.4839 33.6601 24.2284C34.161 23.973 34.5961 23.6023 34.9306 23.1459C35.2651 23.6023 35.7002 23.973 36.2012 24.2284C36.7021 24.4839 37.2551 24.6169 37.8157 24.6169C38.737 24.6127 39.6212 24.2483 40.2843 23.5997C40.7716 23.9209 41.3302 24.1135 41.9095 24.1599C42.4889 24.2064 43.0704 24.1053 43.6014 23.8657C44.0345 23.9524 44.4246 24.1882 44.7058 24.5334C44.987 24.8785 45.1419 25.3116 45.1443 25.7593C45.1588 26.0196 45.1223 26.2802 45.0369 26.5261C44.9515 26.772 44.8189 26.9982 44.6467 27.1918C44.4745 27.3854 44.2662 27.5424 44.0338 27.6537C43.8014 27.7651 43.5496 27.8286 43.2928 27.8406V27.8406Z" fill="#85FF78"/>
<path d="M23.7287 9.49166C24.1032 9.49166 24.4067 9.03636 24.4067 8.47471C24.4067 7.91307 24.1032 7.45776 23.7287 7.45776C23.3543 7.45776 23.0508 7.91307 23.0508 8.47471C23.0508 9.03636 23.3543 9.49166 23.7287 9.49166Z" fill="#85FF78"/>
<path d="M31.1863 9.49166C31.5607 9.49166 31.8642 9.03636 31.8642 8.47471C31.8642 7.91307 31.5607 7.45776 31.1863 7.45776C30.8118 7.45776 30.5083 7.91307 30.5083 8.47471C30.5083 9.03636 30.8118 9.49166 31.1863 9.49166Z" fill="#85FF78"/>
<path d="M16.2712 9.49166C16.6457 9.49166 16.9492 9.03636 16.9492 8.47471C16.9492 7.91307 16.6457 7.45776 16.2712 7.45776C15.8968 7.45776 15.5933 7.91307 15.5933 8.47471C15.5933 9.03636 15.8968 9.49166 16.2712 9.49166Z" fill="#85FF78"/>
<path d="M27.1189 6.10154C27.4933 6.10154 27.7969 5.798 27.7969 5.42357C27.7969 5.04914 27.4933 4.74561 27.1189 4.74561C26.7445 4.74561 26.4409 5.04914 26.4409 5.42357C26.4409 5.798 26.7445 6.10154 27.1189 6.10154Z" fill="#85FF78"/>
<path d="M34.2372 6.10154C34.7988 6.10154 35.2541 5.798 35.2541 5.42357C35.2541 5.04914 34.7988 4.74561 34.2372 4.74561C33.6755 4.74561 33.2202 5.04914 33.2202 5.42357C33.2202 5.798 33.6755 6.10154 34.2372 6.10154Z" fill="#85FF78"/>
<path d="M20.3391 6.10154C20.7135 6.10154 21.0171 5.798 21.0171 5.42357C21.0171 5.04914 20.7135 4.74561 20.3391 4.74561C19.9647 4.74561 19.6611 5.04914 19.6611 5.42357C19.6611 5.798 19.9647 6.10154 20.3391 6.10154Z" fill="#85FF78"/>
<path d="M13.5593 6.10154C13.9337 6.10154 14.2373 5.798 14.2373 5.42357C14.2373 5.04914 13.9337 4.74561 13.5593 4.74561C13.1849 4.74561 12.8813 5.04914 12.8813 5.42357C12.8813 5.798 13.1849 6.10154 13.5593 6.10154Z" fill="#85FF78"/>
<path d="M23.7287 35.9323C24.1032 35.9323 24.4067 35.477 24.4067 34.9154C24.4067 34.3537 24.1032 33.8984 23.7287 33.8984C23.3543 33.8984 23.0508 34.3537 23.0508 34.9154C23.0508 35.477 23.3543 35.9323 23.7287 35.9323Z" fill="#85FF78"/>
<path d="M31.1863 35.9323C31.5607 35.9323 31.8642 35.477 31.8642 34.9154C31.8642 34.3537 31.5607 33.8984 31.1863 33.8984C30.8118 33.8984 30.5083 34.3537 30.5083 34.9154C30.5083 35.477 30.8118 35.9323 31.1863 35.9323Z" fill="#85FF78"/>
<path d="M16.2712 35.9323C16.6457 35.9323 16.9492 35.477 16.9492 34.9154C16.9492 34.3537 16.6457 33.8984 16.2712 33.8984C15.8968 33.8984 15.5933 34.3537 15.5933 34.9154C15.5933 35.477 15.8968 35.9323 16.2712 35.9323Z" fill="#85FF78"/>
<path d="M27.1189 32.5425C27.4933 32.5425 27.7969 32.2389 27.7969 31.8645C27.7969 31.4901 27.4933 31.1865 27.1189 31.1865C26.7445 31.1865 26.4409 31.4901 26.4409 31.8645C26.4409 32.2389 26.7445 32.5425 27.1189 32.5425Z" fill="#85FF78"/>
<path d="M34.2372 32.5425C34.7988 32.5425 35.2541 32.2389 35.2541 31.8645C35.2541 31.4901 34.7988 31.1865 34.2372 31.1865C33.6755 31.1865 33.2202 31.4901 33.2202 31.8645C33.2202 32.2389 33.6755 32.5425 34.2372 32.5425Z" fill="#85FF78"/>
<path d="M20.3391 32.5425C20.7135 32.5425 21.0171 32.2389 21.0171 31.8645C21.0171 31.4901 20.7135 31.1865 20.3391 31.1865C19.9647 31.1865 19.6611 31.4901 19.6611 31.8645C19.6611 32.2389 19.9647 32.5425 20.3391 32.5425Z" fill="#85FF78"/>
<path d="M13.5593 32.5425C13.9337 32.5425 14.2373 32.2389 14.2373 31.8645C14.2373 31.4901 13.9337 31.1865 13.5593 31.1865C13.1849 31.1865 12.8813 31.4901 12.8813 31.8645C12.8813 32.2389 13.1849 32.5425 13.5593 32.5425Z" fill="#85FF78"/>
</svg>
